<?xml version="1.0" encoding="UTF-8"?>
<svg id="Layer_1" xmlns="http://www.w3.org/2000/svg" version="1.1" viewBox="0 0 409.6 409.6">
  <!-- Generator: Adobe Illustrator 30.0.0, SVG Export Plug-In . SVG Version: 2.1.1 Build 123)  -->
  <defs>
    <style>
      .st0 {
        fill: #ccd5dd;
      }

      .st1 {
        fill: #ed80a6;
      }

      .st2 {
        fill: #80b8f8;
      }

      .st3 {
        fill: #b68258;
      }

      .st4 {
        fill: #d5dee6;
      }

      .st5 {
        fill: #efb3a2;
      }

      .st6 {
        fill: #b68358;
      }

      .st7 {
        fill: #d3dce3;
      }

      .st8 {
        fill: #e5eef4;
      }

      .st9 {
        fill: #eb779e;
      }

      .st10 {
        fill: #f8d38a;
      }

      .st11 {
        fill: #e96c9c;
      }

      .st12 {
        fill: #925d38;
      }

      .st13 {
        fill: #f7cb7c;
      }

      .st14 {
        fill: #fce9ae;
      }

      .st15 {
        fill: #3185da;
      }

      .st16 {
        fill: #b78358;
      }
    </style>
  </defs>
  <g>
    <g>
      <g>
        <path class="st11" d="M281.85,123.76c.7-2.53,7-1.75,7.19.8,42.7,6.28,71.26,48.57,67.06,90.61-.58,5.85-2.27,11.59-3.98,17.18l-4,1.51c-5.28-.81-10.58-1.37-15.96-1.51l-.79-2.93c11.56-41.1-9.15-91.79-52.82-102.71l-2.28-2.15c.34-1.52,2.2-1.79,5.59-.8Z"/>
        <path class="st1" d="M270.67,122.96c2.49.12,4.36.65,5.59,1.6,47.01,9.65,69.62,64.33,55.89,107.79-6.78,0-13.59-.1-20.37-.01-1.35.02-3.55-.51-4.38.81,2.18,9.53,2.22,19.22,0,28.74-.06,14.14,1.49,32.82,0,46.31-1.63,14.8-22.17,14.44-23.95,0-1.36-11.03,1.61-25.5-.05-36.28-1.89-12.24-21.34-13.23-23.71.94-1.18,7.01,2.19,13.24-4.59,18.57-6.49,5.1-15.99,2.51-18.53-5.41-2.07-6.43-.93-17.03-1.02-24.13-.13-9.83.09-19.71,0-29.55l-39.46.83c-.97.03-.27-1.45-.47-1.63-5.91-16.81-5.34-35.07,0-51.9-.48-7.43,5.4-17.95,10.13-23.88l2.65-.87c14.62-18.82,37.85-30.15,61.48-31.94.26-.02.53.02.8,0Z"/>
      </g>
      <g>
        <path class="st3" d="M141.32,122.96c10.11,2.66,17.84,5.55,26.35,12.21,14.11,11.06,21.28,24.71,27.8,40.35l.15,4.12.69,3.25c-4.19,14.78-4.59,30.6-.09,45.36l-.6,3.28c.24,1.84-1.35,2.34-2.91,2.38-39.42.35-79.08.14-118.59-.22-3.19-.03-6.34-.67-9.45-1.36-8.79-24.43-4.77-51.63,9.56-73.08,6.11-9.15,16.4-19.55,26.37-24.33,0-.83.4-1.68,1.6-1.6,2.84-4.08,20.26-10.75,23.95-9.55.56.18,1.08.46,1.6.77,3.25-3.15,9.68-3.91,13.57-1.6Z"/>
        <path class="st12" d="M143.72,122.96l6.39.8c23.26.99,43.45,13.99,58.29,31.14-5.49,7.06-10.07,16.24-12.78,24.75l-10.24-22.09c-10.2-16.03-25.81-30.28-45.24-33l1.19-1.6c.79-.04,1.6,0,2.4,0Z"/>
      </g>
    </g>
    <g>
      <g>
        <path class="st13" d="M289.83,97.41l.8,6.39c.06,6.93.56,14.09-1.6,20.76-2.68-.39-4.3-.76-7.19-.8-3.75-.11-7.47-.38-11.18-.8-.08.73-.36.69-.8,0,4.95-32.86-7.81-69.6-36.79-87.37-7.21-4.42-19.49-9.38-27.88-10.04,18.95-.91,40.25,6.06,55.1,17.95s28.21,33.87,29.53,53.91Z"/>
        <path class="st10" d="M290.63,103.8c-1.51-1.37-.66-4.36-.8-6.39,1.42,1.32.78,4.39.8,6.39Z"/>
        <path class="st9" d="M281.85,123.76c-1.73-.02-4.52-.56-5.59.8-1.83-.38-4.12-.21-5.59-1.6,3.33-.2,8.31-.52,11.18.8Z"/>
        <g>
          <path class="st14" d="M205.2,25.55c35.11,1.28,59.64,32.56,65.71,65.7,1.06,5.81,3.19,26.46.22,30.43-.35.47-.79.88-1.26,1.28l-2.66,1.85c-21.45,2.39-41.78,12.33-55.8,28.89l-3.02,1.2-2.99-.96c-13.7-15.14-31.98-26.65-52.66-28.41l-2.64-1.77-6.39-.8c-.42,1.52-1.81,1.39-2.4,0-4.6.21-9.06.75-13.57,1.6-.8-.42-1.72-.91-2.06-1.75-2.6-6.48-2.38-25.17,1.26-31.78,5.92-33.11,43.51-68.23,78.25-65.47Z"/>
          <g>
            <path class="st3" d="M150.11,123.76c-2.02-.09-5.03.68-6.39-.8,1.99,0,5.07-.62,6.39.8Z"/>
            <g>
              <path class="st16" d="M178.61,61.71c3.19,3.76,2.61,14.82-3.42,15.72-7.86,1.17-9.14-9.8-6.1-14.93,1.98-3.33,7.15-3.58,9.52-.79Z"/>
              <path class="st16" d="M206.58,60.05c9.53-2.11,9.38,13.97,4.65,16.64-10.09,5.71-12.81-14.84-4.65-16.64Z"/>
              <path class="st16" d="M240.92,60.02c9.09-1.86,9.57,13.18,4.96,16.19-10.49,6.85-13.35-14.47-4.96-16.19Z"/>
              <path class="st6" d="M195.42,91.23c4.88,4.5,1.03,21.27-8.09,14.86-2.81-1.97-2.78-10.53-1.5-13.29,1.44-3.08,7.14-3.84,9.59-1.58Z"/>
              <path class="st6" d="M225.57,89.81c10.46.38,6.64,23.66-3.91,16.28-3.54-2.48-4.13-16.57,3.91-16.28Z"/>
            </g>
          </g>
        </g>
      </g>
      <g>
        <path class="st5" d="M82.24,14.37l.46,2.33-24.15,39.99h-1.86c-4.82-8.47-13.73-20.15-17.17-28.75-2.73-6.84-.76-10.95,4.92-15.04,2.87-2.07,20.54-11.93,23.08-12.05,9.96-.47,10.98,7.14,14.72,13.52Z"/>
        <path class="st5" d="M119.77,79.05l.41,2.28c-7.97,13.64-16,27.26-24.1,40.84h-1.86c-3.92-6.93-8-13.85-11.98-20.76l-.48-2.32c8.06-13.6,16.11-27.19,24.17-40.79h1.86c3.98,6.94,8.07,13.75,11.98,20.76Z"/>
        <path class="st5" d="M100.6,45.51l.43,2.31c-7.99,13.89-16.03,27.75-24.12,41.58l-1.86.03c-3.81-6.6-7.4-13.35-11.18-19.96l-.42-2.3c7.98-13.89,16.01-27.75,24.11-41.59l1.86-.03c3.86,6.55,7.36,13.38,11.18,19.96Z"/>
        <path class="st6" d="M126.15,90.22c-.03,3.26-1.16,6.44-2.84,9.23-6.36,10.47-12.56,21.01-18.6,31.64l-2.51,2.25c-.12.29.18,1.05-.17,1.42-.44.45-1.18.07-1.42.18-1.6-4.45-4.08-8.69-6.39-12.78l25.55-43.12c2.07,3.72,4.22,7.51,6.39,11.18Z"/>
        <path class="st6" d="M107.79,58.29l-25.55,43.12c-2.3-4.01-4.87-7.95-7.19-11.98l25.55-43.91c2.44,4.21,4.76,8.55,7.19,12.78Z"/>
        <path class="st6" d="M82.24,14.37c2.22,3.78,5.07,7.58,7.19,11.18l-25.55,43.91c-2.41-4.21-4.82-8.62-7.19-12.78l25.55-42.32Z"/>
        <path class="st5" d="M126.95,91.02c-.37,2.09-.69,6.78-.83,9.15-.47,7.78-.35,16.88,1.63,24.39-9.22,1.73-17.07,4.94-25.55,8.78,6.3-14.72,17.43-28.37,23.95-43.12.16.27.6.5.8.8Z"/>
      </g>
    </g>
  </g>
  <g>
    <path class="st2" d="M306.6,360.1l1.41,1.05-8.29,39.44c-2.88,6.07-7.37,8.53-13.88,9.02H108.59c-2.75-1.61-5.78-2.73-8.02-5.15-5.48-5.94-9.9-34.81-11.94-44.35,71.31-.69,146.49-.74,217.97,0Z"/>
    <path class="st15" d="M327.36,360.1c-2.38,11.14-3.72,23.52-6.62,34.49-2.03,7.68-5.03,11.92-12.54,15.01h-22.36c5.29-1.85,9.82-4.35,12.39-9.57l8.37-39.93,1.4-1.6c.83-.38,17.4-.43,18.21,0,.62.33.94.95,1.15,1.6Z"/>
    <path class="st8" d="M283.45,308.2l1.77.91c2.42,11.13,18.13,11.41,20.43.05l1.76-.96c.76-2.56,9.39-2.45,10.38,0l1.42,1.05c-3.38,16.66-6.79,33.32-10.24,49.98-72.5.85-147.88.72-220.33.07-3.64-16.99-6.88-34.08-10.38-51.1l.56-1.6h203.65l.99,1.6Z"/>
    <path class="st2" d="M235.54,261.89l1.6,1.38c-1.77,9.47-.75,36.69,15.4,27.94,2.98-1.62,5.07-4.32,5.3-7.75-5.33-24.43,25.91-32.91,27.61-6.63-.35,9.76-.55,19.52-.61,29.27l-1.39,2.11H78.25c-3.12-15.17-6.62-30.31-9.58-45.51-.19-1.78,1.14-2.35,2.74-2.37,49.1-.52,98.56-.23,147.8.09,5.47.04,10.92.76,16.34,1.47Z"/>
    <path class="st0" d="M338.54,308.2c-3.59,17.33-7.49,34.61-11.18,51.9H88.63c-.05-.25.05-.54,0-.8l218.74-.04,10.42-51.06c6.56-.66,14.12-.64,20.76,0Z"/>
    <path class="st15" d="M347.32,263.49c-2.34,14.75-5.76,29.31-8.78,43.91-2.45.44-21.15.85-21.99.02,2.37-15,5.24-29.96,8.62-44.87,2.4-1.15,19.36-.53,22.16.93Z"/>
    <path class="st2" d="M341.73,261.89c2.58-1.23,4.71-1.23,6.39,0,.7.23.69.49,0,.8l-.8.8c-6.5-1.83-14.01-.32-20.75-.79l-8.79,44.7h20.76c-.05.26.05.55,0,.8h-31.14l-1.36-2.56c.48-13.72.4-27.45-.23-41.19l1.59-2.55c11.44-1.97,22.9-1.99,34.33,0Z"/>
    <g>
      <path class="st8" d="M195.62,231.55c1.61.85,1.93.86.97.02l37.98-.8c.65.24,1.98.8,2.02.95,1.95,8.73.67,21.37-1.05,30.17-54.42.59-108.92-.77-163.34-.03-1.53.02-2.93.82-3.53.83-7.61.19-15.63.75-20.96-5.79-7.03-8.62-2.38-22.46,8.77-24.36,2.69-.46,5.49-.1,8.2-.19,42.38-1.33,85.01,1.2,127.41.03,1.45-.04,3.4-.95,3.54-.83Z"/>
      <path class="st0" d="M332.15,232.35c6.62,0,13.35-.21,19.96,0,2.81.44,5.74.71,8.78.8,16.38,3.88,14.59,27.68-3.19,29.54-3.31-.29-6.5-.56-9.58-.8-2.13,0-4.26,0-6.39,0l.44-1.95c14.43-9.24,7.45-29.01-10.57-25.56l-21.97.51-2.24-1.74c-.49-.52-.88-1.51-.48-1.74,4.4-2.55,19.97-.22,25.23.95Z"/>
      <path class="st4" d="M357.7,262.69c-3.03.32-6.48-.23-9.58,0v-.8c3.02.01,7.2-.67,9.58.8Z"/>
      <path class="st7" d="M360.9,233.14h-8.38s-.41-.8-.41-.8c3.59.12,5.24-.04,8.78.8Z"/>
      <path class="st8" d="M341.73,261.89c-11.43-.02-22.9.01-34.33,0,.04-9.57-.03-19.17,0-28.74,10.26.85,22.29-1.15,32.34,0,14.95,1.71,15.47,23.34,2,28.74Z"/>
    </g>
  </g>
</svg>